<svg width="24" height="24" viewBox="0 0 24 24" fill="none" xmlns="http://www.w3.org/2000/svg">
<path d="M9.70874 1.23133C7.83619 1.62966 6.09997 2.50969 4.67165 3.78445C3.24333 5.05922 2.17234 6.6846 1.5645 8.49999C0.956654 10.3154 0.833002 12.258 1.20576 14.1358C1.57851 16.0136 2.43478 17.7616 3.68994 19.2072C3.83945 19.387 3.92784 19.6097 3.94233 19.8431C3.95682 20.0764 3.89664 20.3083 3.77051 20.5052L3.26489 21.3199C3.16152 21.4865 3.10455 21.6776 3.09987 21.8736C3.09519 22.0696 3.14298 22.2633 3.23828 22.4346C3.33359 22.6059 3.47295 22.7487 3.64194 22.8481C3.81093 22.9474 4.00341 22.9999 4.19946 22.9999H11.6841C14.5276 23.0306 17.2764 21.9794 19.3739 20.0593C21.4714 18.1391 22.7607 15.4936 22.9807 12.6584C23.0812 10.9667 22.7899 9.27455 22.1295 7.71379C21.4691 6.15302 20.4573 4.76575 19.173 3.65997C17.8887 2.5542 16.3665 1.75976 14.725 1.33852C13.0834 0.917278 11.3668 0.880595 9.70874 1.23133ZM12 4.99988C12.3043 4.9999 12.6017 5.09015 12.8547 5.25921C13.1077 5.42827 13.3048 5.66856 13.4213 5.94967C13.5377 6.23079 13.5681 6.54012 13.5088 6.83854C13.4494 7.13696 13.3028 7.41108 13.0877 7.62622C12.8725 7.84136 12.5984 7.98787 12.3 8.04723C12.0015 8.10658 11.6922 8.0761 11.4111 7.95966C11.13 7.84321 10.8897 7.64603 10.7207 7.39303C10.5517 7.14004 10.4614 6.8426 10.4614 6.53833C10.4615 6.1303 10.6236 5.73899 10.9121 5.45048C11.2006 5.16196 11.592 4.99988 12 4.99988ZM13.2305 17.9999H12C11.8687 17.9999 11.7386 17.9741 11.6173 17.9238C11.4959 17.8736 11.3857 17.7999 11.2928 17.7071C11.2 17.6142 11.1263 17.5039 11.0761 17.3826C11.0258 17.2613 11 17.1312 11 16.9999V11.8461H10.7695C10.5043 11.8461 10.25 11.7407 10.0624 11.5532C9.87489 11.3656 9.76953 11.1113 9.76953 10.8461C9.76953 10.5809 9.87489 10.3265 10.0624 10.139C10.25 9.95143 10.5043 9.84607 10.7695 9.84607H12C12.1313 9.84604 12.2614 9.87188 12.3827 9.92212C12.5041 9.97236 12.6143 10.046 12.7072 10.1389C12.8 10.2318 12.8737 10.342 12.924 10.4633C12.9742 10.5847 13 10.7147 13 10.8461V15.9999H13.2305C13.4957 15.9999 13.75 16.1052 13.9376 16.2928C14.1251 16.4803 14.2305 16.7347 14.2305 16.9999C14.2305 17.2651 14.1251 17.5194 13.9376 17.707C13.75 17.8945 13.4957 17.9999 13.2305 17.9999Z" fill="#5851EF"/>
</svg>
