<svg width="25" height="24" viewBox="0 0 25 24" fill="none" xmlns="http://www.w3.org/2000/svg">
<path d="M9.5 2C6.88 2 4.75 4.13 4.75 6.75C4.75 9.32 6.76 11.4 9.38 11.49C9.46 11.48 9.54 11.48 9.6 11.49C9.62 11.49 9.63 11.49 9.65 11.49C9.66 11.49 9.66 11.49 9.67 11.49C12.23 11.4 14.24 9.32 14.25 6.75C14.25 4.13 12.12 2 9.5 2Z" fill="#7A7985"/>
<path d="M14.58 14.15C11.79 12.29 7.23996 12.29 4.42996 14.15C3.15996 15 2.45996 16.15 2.45996 17.38C2.45996 18.61 3.15996 19.75 4.41996 20.59C5.81996 21.53 7.65996 22 9.49996 22C11.34 22 13.18 21.53 14.58 20.59C15.84 19.74 16.54 18.6 16.54 17.36C16.53 16.13 15.84 14.99 14.58 14.15Z" fill="#7A7985"/>
<path d="M20.4901 7.33999C20.6501 9.27999 19.2701 10.98 17.3601 11.21C17.3501 11.21 17.3501 11.21 17.3401 11.21H17.3101C17.2501 11.21 17.1901 11.21 17.1401 11.23C16.1701 11.28 15.2801 10.97 14.6101 10.4C15.6401 9.47999 16.2301 8.09999 16.1101 6.59999C16.0401 5.78999 15.7601 5.04999 15.3401 4.41999C15.7201 4.22999 16.1601 4.10999 16.6101 4.06999C18.5701 3.89999 20.3201 5.35999 20.4901 7.33999Z" fill="#7A7985"/>
<path d="M22.49 16.59C22.41 17.56 21.79 18.4 20.75 18.97C19.75 19.52 18.49 19.78 17.24 19.75C17.96 19.1 18.38 18.29 18.46 17.43C18.56 16.19 17.97 15 16.79 14.05C16.12 13.52 15.34 13.1 14.49 12.79C16.7 12.15 19.48 12.58 21.19 13.96C22.11 14.7 22.58 15.63 22.49 16.59Z" fill="#7A7985"/>
</svg>
