<svg width="22" height="22" viewBox="0 0 22 22" fill="none" xmlns="http://www.w3.org/2000/svg">
<path d="M11 20.24C10.725 20.24 10.45 20.1758 10.2208 20.0475C8.50667 19.1125 5.49084 18.1225 3.6025 17.875L3.33667 17.8383C2.13584 17.6916 1.14584 16.5641 1.14584 15.345V4.27163C1.14584 3.54747 1.43 2.88747 1.9525 2.4108C2.475 1.93413 3.15334 1.70497 3.86834 1.76913C5.885 1.92497 8.92834 2.9333 10.6517 4.01497L10.8717 4.1433C10.9358 4.17997 11.0733 4.17997 11.1283 4.15247L11.275 4.0608C12.9983 2.97913 16.0417 1.95247 18.0675 1.7783C18.0858 1.7783 18.1592 1.7783 18.1775 1.7783C18.8467 1.71413 19.5342 1.95247 20.0475 2.42913C20.57 2.9058 20.8542 3.5658 20.8542 4.28997V15.3541C20.8542 16.5825 19.8642 17.7008 18.6542 17.8475L18.3517 17.8841C16.4633 18.1316 13.4383 19.1308 11.7608 20.0566C11.5408 20.185 11.275 20.24 11 20.24ZM3.64834 3.13497C3.355 3.13497 3.08917 3.2358 2.87834 3.4283C2.64917 3.63913 2.52084 3.94163 2.52084 4.27163V15.345C2.52084 15.8858 2.98834 16.4083 3.51084 16.4816L3.78584 16.5183C5.84834 16.7933 9.01084 17.8291 10.8442 18.8283C10.9267 18.865 11.0458 18.8741 11.0917 18.8558C12.925 17.8383 16.1058 16.7933 18.1775 16.5183L18.4892 16.4816C19.0117 16.4175 19.4792 15.8858 19.4792 15.345V4.2808C19.4792 3.94163 19.3508 3.6483 19.1217 3.4283C18.8833 3.21747 18.5808 3.11663 18.2417 3.13497C18.2233 3.13497 18.15 3.13497 18.1317 3.13497C16.3808 3.2908 13.5575 4.23497 12.0175 5.19747L11.8708 5.2983C11.3667 5.60997 10.6517 5.60997 10.1658 5.30747L9.94584 5.17913C8.37834 4.21663 5.555 3.28163 3.75834 3.13497C3.72167 3.13497 3.685 3.13497 3.64834 3.13497Z" fill="#605D5F"/>
<path d="M11 19.47C10.6242 19.47 10.3125 19.1583 10.3125 18.7825V5.03247C10.3125 4.65664 10.6242 4.34497 11 4.34497C11.3758 4.34497 11.6875 4.65664 11.6875 5.03247V18.7825C11.6875 19.1675 11.3758 19.47 11 19.47Z" fill="#605D5F"/>
<path d="M7.10416 8.46997H5.04166C4.66583 8.46997 4.35416 8.1583 4.35416 7.78247C4.35416 7.40664 4.66583 7.09497 5.04166 7.09497H7.10416C7.48 7.09497 7.79166 7.40664 7.79166 7.78247C7.79166 8.1583 7.48 8.46997 7.10416 8.46997Z" fill="#605D5F"/>
<path d="M7.79166 11.22H5.04166C4.66583 11.22 4.35416 10.9083 4.35416 10.5325C4.35416 10.1566 4.66583 9.84497 5.04166 9.84497H7.79166C8.1675 9.84497 8.47916 10.1566 8.47916 10.5325C8.47916 10.9083 8.1675 11.22 7.79166 11.22Z" fill="#605D5F"/>
</svg>
