<svg width="40" height="38" viewBox="0 0 40 38" fill="none" xmlns="http://www.w3.org/2000/svg">
<g clip-path="url(#clip0_142_1927)">
<path d="M24.6058 15.9167C24.301 15.5511 23.9195 15.2569 23.4883 15.0553C23.0571 14.8537 22.5868 14.7494 22.1108 14.75H4.5955L4.55 14.3697C4.45689 13.5794 4.077 12.8506 3.48236 12.3217C2.88773 11.7927 2.11968 11.5004 1.32383 11.5H1.08333C0.796016 11.5 0.520465 11.6141 0.317301 11.8173C0.114137 12.0205 0 12.296 0 12.5833C0 12.8707 0.114137 13.1462 0.317301 13.3494C0.520465 13.5525 0.796016 13.6667 1.08333 13.6667H1.32383C1.58918 13.6667 1.84528 13.7641 2.04357 13.9404C2.24186 14.1168 2.36854 14.3597 2.39958 14.6232L3.89025 27.2982C4.04501 28.6164 4.67835 29.8319 5.67007 30.714C6.66178 31.5961 7.94284 32.0834 9.27008 32.0833H20.5833C20.8707 32.0833 21.1462 31.9692 21.3494 31.766C21.5525 31.5629 21.6667 31.2873 21.6667 31C21.6667 30.7127 21.5525 30.4371 21.3494 30.234C21.1462 30.0308 20.8707 29.9167 20.5833 29.9167H9.27008C8.59956 29.9148 7.94603 29.7055 7.3991 29.3176C6.85216 28.9298 6.43859 28.3822 6.21508 27.75H19.1284C20.3984 27.7501 21.628 27.3039 22.6025 26.4895C23.5769 25.675 24.2342 24.5441 24.4595 23.2942L25.3099 18.5774C25.3948 18.1094 25.3757 17.6285 25.254 17.1687C25.1323 16.7089 24.911 16.2815 24.6058 15.9167ZM23.1833 18.1928L22.3318 22.9097C22.1966 23.6604 21.8015 24.3397 21.2159 24.8285C20.6302 25.3173 19.8913 25.5845 19.1284 25.5833H5.87058L4.85117 16.9167H22.1108C22.27 16.9157 22.4274 16.9498 22.5718 17.0166C22.7163 17.0834 22.8443 17.1812 22.9467 17.303C23.049 17.4248 23.1233 17.5677 23.1642 17.7215C23.2051 17.8753 23.2117 18.0362 23.1833 18.1928Z" fill="#05030D"/>
<path d="M7.58334 37.5C8.77996 37.5 9.75 36.5299 9.75 35.3333C9.75 34.1367 8.77996 33.1666 7.58334 33.1666C6.38672 33.1666 5.41667 34.1367 5.41667 35.3333C5.41667 36.5299 6.38672 37.5 7.58334 37.5Z" fill="#05030D"/>
<path d="M18.4167 37.5C19.6133 37.5 20.5833 36.5299 20.5833 35.3333C20.5833 34.1367 19.6133 33.1666 18.4167 33.1666C17.22 33.1666 16.25 34.1367 16.25 35.3333C16.25 36.5299 17.22 37.5 18.4167 37.5Z" fill="#05030D"/>
</g>
<circle cx="28" cy="12.5" r="12" fill="#FF6464"/>
<defs>
<clipPath id="clip0_142_1927">
<rect width="26" height="26" fill="white" transform="translate(0 11.5)"/>
</clipPath>
</defs>
</svg>
