<svg width="22" height="22" viewBox="0 0 22 22" fill="none" xmlns="http://www.w3.org/2000/svg">
<path d="M13.75 20.8542H8.25C3.2725 20.8542 1.14584 18.7275 1.14584 13.75V8.25004C1.14584 3.27254 3.2725 1.14587 8.25 1.14587H12.8333C13.2092 1.14587 13.5208 1.45754 13.5208 1.83337C13.5208 2.20921 13.2092 2.52087 12.8333 2.52087H8.25C4.02417 2.52087 2.52084 4.02421 2.52084 8.25004V13.75C2.52084 17.9759 4.02417 19.4792 8.25 19.4792H13.75C17.9758 19.4792 19.4792 17.9759 19.4792 13.75V9.16671C19.4792 8.79087 19.7908 8.47921 20.1667 8.47921C20.5425 8.47921 20.8542 8.79087 20.8542 9.16671V13.75C20.8542 18.7275 18.7275 20.8542 13.75 20.8542Z" fill="#605D5F"/>
<path d="M20.1667 9.8542H16.5C13.365 9.8542 12.1458 8.63503 12.1458 5.50003V1.83336C12.1458 1.55836 12.3108 1.3017 12.5675 1.20086C12.8242 1.09086 13.1175 1.15503 13.3192 1.34753L20.6525 8.68086C20.845 8.87336 20.9092 9.17586 20.7992 9.43253C20.6892 9.6892 20.4417 9.8542 20.1667 9.8542ZM13.5208 3.49253V5.50003C13.5208 7.86503 14.135 8.4792 16.5 8.4792H18.5075L13.5208 3.49253Z" fill="#605D5F"/>
</svg>
