<svg width="28" height="28" viewBox="0 0 28 28" fill="none" xmlns="http://www.w3.org/2000/svg">
<path d="M19.6 10.5H14.875V15.68L17.29 13.265C17.465 13.09 17.6867 13.0083 17.9083 13.0083C18.13 13.0083 18.3517 13.09 18.5267 13.265C18.865 13.6033 18.865 14.1633 18.5267 14.5017L14.6183 18.41C14.28 18.7483 13.72 18.7483 13.3817 18.41L9.47333 14.5017C9.135 14.1633 9.135 13.6033 9.47333 13.265C9.81167 12.9267 10.3717 12.9267 10.71 13.265L13.125 15.68V10.5H8.4C4.66667 10.5 2.33333 12.8333 2.33333 16.5667V19.5883C2.33333 23.3333 4.66667 25.6667 8.4 25.6667H19.5883C23.3217 25.6667 25.655 23.3333 25.655 19.6V16.5667C25.6667 12.8333 23.3333 10.5 19.6 10.5Z" fill="#5851EF"/>
<path d="M14.875 3.20831C14.875 2.72998 14.4783 2.33331 14 2.33331C13.5217 2.33331 13.125 2.72998 13.125 3.20831V10.5H14.875V3.20831Z" fill="#5851EF"/>
</svg>
