<svg width="17" height="17" viewBox="0 0 17 17" fill="none" xmlns="http://www.w3.org/2000/svg">
<path fill-rule="evenodd" clip-rule="evenodd" d="M7.05817 9.1721C6.76898 10.1438 5.86885 10.8524 4.80323 10.8524C3.73761 10.8524 2.83748 10.1438 2.54829 9.1721H1.10714C0.735689 9.1721 0.43457 8.87378 0.43457 8.5C0.43457 8.12881 0.735315 7.8279 1.10714 7.8279H2.54829C2.83748 6.85621 3.73761 6.14765 4.80323 6.14765C5.86885 6.14765 6.76898 6.85621 7.05817 7.8279H15.8924C16.2639 7.8279 16.565 8.12622 16.565 8.5C16.565 8.87119 16.2643 9.1721 15.8924 9.1721H7.05817ZM9.9414 13.5408C10.2306 12.5691 11.1307 11.8605 12.1963 11.8605C13.262 11.8605 14.1621 12.5691 14.4513 13.5408H15.8924C16.2639 13.5408 16.565 13.8391 16.565 14.2129C16.565 14.5841 16.2643 14.885 15.8924 14.885H14.4513C14.1621 15.8567 13.262 16.5652 12.1963 16.5652C11.1307 16.5652 10.2306 15.8567 9.9414 14.885H1.10714C0.735689 14.885 0.43457 14.5866 0.43457 14.2129C0.43457 13.8417 0.735315 13.5408 1.10714 13.5408H9.9414ZM9.9414 2.11504C10.2306 1.14335 11.1307 0.434784 12.1963 0.434784C13.262 0.434784 14.1621 1.14335 14.4513 2.11504H15.8924C16.2639 2.11504 16.565 2.41336 16.565 2.78714C16.565 3.15833 16.2643 3.45924 15.8924 3.45924H14.4513C14.1621 4.43093 13.262 5.13949 12.1963 5.13949C11.1307 5.13949 10.2306 4.43093 9.9414 3.45924H1.10714C0.735689 3.45924 0.43457 3.16092 0.43457 2.78714C0.43457 2.41595 0.735315 2.11504 1.10714 2.11504H9.9414ZM12.1963 3.79529C12.7531 3.79529 13.2045 3.34393 13.2045 2.78714C13.2045 2.23035 12.7531 1.77899 12.1963 1.77899C11.6396 1.77899 11.1882 2.23035 11.1882 2.78714C11.1882 3.34393 11.6396 3.79529 12.1963 3.79529ZM12.1963 15.221C12.7531 15.221 13.2045 14.7697 13.2045 14.2129C13.2045 13.6561 12.7531 13.2047 12.1963 13.2047C11.6396 13.2047 11.1882 13.6561 11.1882 14.2129C11.1882 14.7697 11.6396 15.221 12.1963 15.221ZM4.80323 7.49185C4.24644 7.49185 3.79508 7.94321 3.79508 8.5C3.79508 9.05679 4.24644 9.50815 4.80323 9.50815C5.36002 9.50815 5.81138 9.05679 5.81138 8.5C5.81138 7.94321 5.36002 7.49185 4.80323 7.49185Z" fill="white"/>
</svg>
