<svg width="22" height="22" viewBox="0 0 22 22" fill="none" xmlns="http://www.w3.org/2000/svg">
<path d="M11 20.8543C5.56417 20.8543 1.14584 16.436 1.14584 11.0002C1.14584 5.56433 5.56417 1.146 11 1.146C16.4358 1.146 20.8542 5.56433 20.8542 11.0002C20.8542 16.436 16.4358 20.8543 11 20.8543ZM11 2.521C6.325 2.521 2.52084 6.32516 2.52084 11.0002C2.52084 15.6752 6.325 19.4793 11 19.4793C15.675 19.4793 19.4792 15.6752 19.4792 11.0002C19.4792 6.32516 15.675 2.521 11 2.521Z" fill="#605D5F"/>
<path d="M8.25 19.9376H7.33333C6.9575 19.9376 6.64583 19.626 6.64583 19.2501C6.64583 18.8743 6.93917 18.5718 7.315 18.5626C5.87583 13.6493 5.87583 8.35096 7.315 3.43762C6.93917 3.42846 6.64583 3.12596 6.64583 2.75012C6.64583 2.37429 6.9575 2.06262 7.33333 2.06262H8.25C8.47 2.06262 8.68083 2.17262 8.80917 2.34679C8.9375 2.53012 8.97417 2.75929 8.90083 2.97012C7.1775 8.14929 7.1775 13.851 8.90083 19.0393C8.97417 19.2501 8.9375 19.4793 8.80917 19.6626C8.68083 19.8276 8.47 19.9376 8.25 19.9376Z" fill="#605D5F"/>
<path d="M13.75 19.9376C13.6767 19.9376 13.6033 19.9284 13.53 19.9009C13.1725 19.7817 12.9708 19.3876 13.0992 19.0301C14.8225 13.8509 14.8225 8.14925 13.0992 2.96092C12.98 2.60342 13.1725 2.20925 13.53 2.09008C13.8967 1.97092 14.2817 2.16342 14.4008 2.52092C16.225 7.98425 16.225 13.9976 14.4008 19.4517C14.3092 19.7542 14.0342 19.9376 13.75 19.9376Z" fill="#605D5F"/>
<path d="M11 15.7668C8.4425 15.7668 5.89417 15.4093 3.4375 14.6851C3.42833 15.0518 3.12583 15.3543 2.75 15.3543C2.37417 15.3543 2.0625 15.0426 2.0625 14.6668V13.7501C2.0625 13.5301 2.1725 13.3193 2.34667 13.1909C2.53 13.0626 2.75917 13.0259 2.97 13.0993C8.14917 14.8226 13.86 14.8226 19.0392 13.0993C19.25 13.0259 19.4792 13.0626 19.6625 13.1909C19.8458 13.3193 19.9467 13.5301 19.9467 13.7501V14.6668C19.9467 15.0426 19.635 15.3543 19.2592 15.3543C18.8833 15.3543 18.5808 15.0609 18.5717 14.6851C16.1058 15.4093 13.5575 15.7668 11 15.7668Z" fill="#605D5F"/>
<path d="M19.25 8.93766C19.1767 8.93766 19.1033 8.92849 19.03 8.90099C13.8508 7.17766 8.14 7.17766 2.96084 8.90099C2.59417 9.02016 2.20917 8.82766 2.09 8.47016C1.98 8.10349 2.1725 7.71849 2.53 7.59933C7.99334 5.77516 14.0067 5.77516 19.4608 7.59933C19.8183 7.71849 20.02 8.11266 19.8917 8.47016C19.8092 8.75433 19.5342 8.93766 19.25 8.93766Z" fill="#605D5F"/>
</svg>
