<svg width="22" height="22" viewBox="0 0 22 22" fill="none" xmlns="http://www.w3.org/2000/svg">
<path d="M13.75 20.8543H8.25C3.2725 20.8543 1.14584 18.7277 1.14584 13.7502V8.25016C1.14584 3.27266 3.2725 1.146 8.25 1.146H13.75C18.7275 1.146 20.8542 3.27266 20.8542 8.25016V13.7502C20.8542 18.7277 18.7275 20.8543 13.75 20.8543ZM8.25 2.521C4.02417 2.521 2.52084 4.02433 2.52084 8.25016V13.7502C2.52084 17.976 4.02417 19.4793 8.25 19.4793H13.75C17.9758 19.4793 19.4792 17.976 19.4792 13.7502V8.25016C19.4792 4.02433 17.9758 2.521 13.75 2.521H8.25Z" fill="#605D5F"/>
<path d="M8.8 14.4652C8.62583 14.4652 8.45166 14.401 8.31416 14.2635L6.03166 11.981C5.49083 11.4402 5.49083 10.5693 6.03166 10.0285L8.31416 7.74601C8.58 7.48017 9.02 7.48017 9.28583 7.74601C9.55166 8.01184 9.55166 8.45184 9.28583 8.71767L7.00333 11.0002L9.28583 13.2918C9.55166 13.5577 9.55166 13.9977 9.28583 14.2635C9.14833 14.3918 8.97416 14.4652 8.8 14.4652Z" fill="#605D5F"/>
<path d="M13.2 14.4651C13.0258 14.4651 12.8517 14.4009 12.7142 14.2634C12.4483 13.9976 12.4483 13.5576 12.7142 13.2917L14.9967 11.0001L12.7142 8.7084C12.4483 8.44256 12.4483 8.00256 12.7142 7.73673C12.98 7.4709 13.42 7.4709 13.6858 7.73673L15.9683 10.0192C16.5092 10.5601 16.5092 11.4309 15.9683 11.9717L13.6858 14.2542C13.5575 14.3917 13.3742 14.4651 13.2 14.4651Z" fill="#605D5F"/>
</svg>
