<svg width="28" height="28" viewBox="0 0 28 28" fill="none" xmlns="http://www.w3.org/2000/svg">
<path d="M23.0883 4.92332C19.635 1.48165 14.035 1.48165 10.605 4.92332C8.19 7.31499 7.46667 10.7567 8.4 13.79L2.91667 19.2733C2.53167 19.67 2.26333 20.4517 2.345 21.0117L2.695 23.555C2.82333 24.395 3.605 25.1883 4.445 25.305L6.98833 25.655C7.54833 25.7367 8.33 25.48 8.72667 25.0717L9.68333 24.115C9.91667 23.8933 9.91667 23.52 9.68333 23.2867L7.42 21.0233C7.08167 20.685 7.08167 20.125 7.42 19.7867C7.75833 19.4483 8.31833 19.4483 8.65667 19.7867L10.9317 22.0617C11.1533 22.2833 11.5267 22.2833 11.7483 22.0617L14.2217 19.6C17.2433 20.545 20.685 19.81 23.0883 17.4183C26.53 13.9767 26.53 8.36499 23.0883 4.92332ZM16.9167 14C15.3067 14 14 12.6933 14 11.0833C14 9.47332 15.3067 8.16666 16.9167 8.16666C18.5267 8.16666 19.8333 9.47332 19.8333 11.0833C19.8333 12.6933 18.5267 14 16.9167 14Z" fill="#5851EF"/>
</svg>
