<svg width="28" height="28" viewBox="0 0 28 28" fill="none" xmlns="http://www.w3.org/2000/svg">
<path d="M17.5 19.6L17.5 14.875L10.2083 14.875C9.73 14.875 9.33333 14.4783 9.33333 14C9.33333 13.5217 9.73 13.125 10.2083 13.125L17.5 13.125L17.5 8.40001C17.5 4.66668 15.1667 2.33334 11.4333 2.33334L8.41166 2.33334C4.66667 2.33334 2.33333 4.66668 2.33333 8.40001L2.33333 19.5883C2.33333 23.3217 4.66667 25.655 8.4 25.655L11.4333 25.655C15.1667 25.6667 17.5 23.3333 17.5 19.6Z" fill="#5851EF"/>
<path d="M22.68 14.875L20.265 17.29C20.09 17.465 20.0083 17.6867 20.0083 17.9083C20.0083 18.13 20.09 18.3517 20.265 18.5267C20.6033 18.865 21.1633 18.865 21.5017 18.5267L25.41 14.6183C25.7483 14.28 25.7483 13.72 25.41 13.3817L21.5017 9.47332C21.1633 9.13499 20.6033 9.13499 20.265 9.47332C19.9267 9.81166 19.9267 10.3717 20.265 10.71L22.68 13.125L17.5 13.125L17.5 14.875L22.68 14.875Z" fill="#5851EF"/>
</svg>
