<svg width="28" height="28" viewBox="0 0 28 28" fill="none" xmlns="http://www.w3.org/2000/svg">
<path d="M14 2.33331C10.9433 2.33331 8.45833 4.81831 8.45833 7.87498C8.45833 10.8733 10.8033 13.3 13.86 13.405C13.9533 13.3933 14.0467 13.3933 14.1167 13.405C14.14 13.405 14.1517 13.405 14.175 13.405C14.1867 13.405 14.1867 13.405 14.1983 13.405C17.185 13.3 19.53 10.8733 19.5417 7.87498C19.5417 4.81831 17.0567 2.33331 14 2.33331Z" fill="#5851EF"/>
<path d="M19.9267 16.5084C16.6717 14.3384 11.3633 14.3384 8.085 16.5084C6.60333 17.5 5.78667 18.8417 5.78667 20.2767C5.78667 21.7117 6.60333 23.0417 8.07333 24.0217C9.70667 25.1184 11.8533 25.6667 14 25.6667C16.1467 25.6667 18.2933 25.1184 19.9267 24.0217C21.3967 23.03 22.2133 21.7 22.2133 20.2534C22.2017 18.8184 21.3967 17.4884 19.9267 16.5084Z" fill="#5851EF"/>
</svg>
