<svg width="24" height="24" viewBox="0 0 24 24" fill="none" xmlns="http://www.w3.org/2000/svg">
<g clip-path="url(#clip0_142_2021)">
<path d="M19.333 14.667C18.5769 14.6676 17.8323 14.8522 17.1635 15.2048C16.4947 15.5574 15.9217 16.0675 15.494 16.691L8.98499 13.752C9.4473 12.6356 9.4491 11.3817 8.98999 10.264L15.49 7.31C16.1239 8.22676 17.0653 8.88597 18.1436 9.16805C19.2219 9.45013 20.3655 9.33641 21.3671 8.8475C22.3687 8.3586 23.1619 7.5269 23.6028 6.50327C24.0438 5.47964 24.1032 4.33188 23.7704 3.26818C23.4375 2.20448 22.7345 1.2953 21.7887 0.705559C20.843 0.115817 19.7172 -0.115424 18.6155 0.0537794C17.5139 0.222983 16.5094 0.781424 15.7842 1.62781C15.0591 2.47419 14.6613 3.55245 14.663 4.667C14.6672 4.9308 14.694 5.19376 14.743 5.453L7.83299 8.593C7.16933 7.97122 6.3385 7.55684 5.44257 7.40077C4.54663 7.24469 3.62462 7.35372 2.7898 7.71446C1.95498 8.0752 1.24372 8.67194 0.74339 9.43137C0.243061 10.1908 -0.0245409 11.0798 -0.026539 11.9893C-0.0285372 12.8987 0.235155 13.7889 0.732142 14.5505C1.22913 15.3121 1.93777 15.912 2.77099 16.2764C3.60422 16.6408 4.52574 16.7539 5.42235 16.6017C6.31896 16.4496 7.15161 16.0389 7.81799 15.42L14.746 18.548C14.6979 18.807 14.6714 19.0696 14.667 19.333C14.6668 20.2561 14.9404 21.1586 15.4531 21.9262C15.9658 22.6939 16.6947 23.2922 17.5475 23.6456C18.4004 23.9989 19.3388 24.0914 20.2442 23.9114C21.1496 23.7313 21.9813 23.2868 22.6341 22.6341C23.2868 21.9813 23.7313 21.1497 23.9114 20.2442C24.0914 19.3388 23.9989 18.4004 23.6455 17.5476C23.2922 16.6947 22.6939 15.9659 21.9262 15.4531C21.1586 14.9404 20.2561 14.6668 19.333 14.667ZM19.333 2C19.8605 1.99981 20.3763 2.15605 20.815 2.44899C21.2537 2.74192 21.5957 3.15838 21.7977 3.64569C21.9997 4.13301 22.0527 4.66928 21.9499 5.1867C21.8471 5.70411 21.5931 6.17942 21.2202 6.5525C20.8473 6.92559 20.372 7.1797 19.8547 7.28269C19.3373 7.38567 18.801 7.33292 18.3136 7.13109C17.8262 6.92926 17.4096 6.58742 17.1165 6.14881C16.8234 5.71021 16.667 5.19453 16.667 4.667C16.6675 3.96001 16.9485 3.2821 17.4484 2.78209C17.9482 2.28207 18.626 2.0008 19.333 2ZM4.66699 14.667C4.13947 14.6672 3.62373 14.511 3.18502 14.218C2.7463 13.9251 2.40431 13.5086 2.20229 13.0213C2.00028 12.534 1.94732 11.9977 2.05012 11.4803C2.15291 10.9629 2.40684 10.4876 2.77979 10.1145C3.15273 9.74142 3.62795 9.48731 4.14532 9.38432C4.66269 9.28134 5.19899 9.33409 5.68638 9.53592C6.17377 9.73775 6.59036 10.0796 6.88345 10.5182C7.17655 10.9568 7.33299 11.4725 7.33299 12C7.3322 12.7069 7.0511 13.3847 6.55132 13.8846C6.05155 14.3846 5.37391 14.6659 4.66699 14.667ZM19.333 22C18.8055 22 18.2899 21.8436 17.8513 21.5505C17.4127 21.2575 17.0709 20.841 16.869 20.3536C16.6671 19.8663 16.6143 19.33 16.7172 18.8127C16.8201 18.2954 17.0742 17.8201 17.4471 17.4472C17.8201 17.0742 18.2953 16.8202 18.8127 16.7173C19.33 16.6143 19.8663 16.6672 20.3536 16.869C20.8409 17.0709 21.2575 17.4127 21.5505 17.8513C21.8436 18.2899 22 18.8055 22 19.333C21.9995 20.0402 21.7183 20.7182 21.2183 21.2183C20.7182 21.7183 20.0402 21.9995 19.333 22Z" fill="#605D5F"/>
</g>
<defs>
<clipPath id="clip0_142_2021">
<rect width="24" height="24" fill="white"/>
</clipPath>
</defs>
</svg>
