<svg width="28" height="28" viewBox="0 0 28 28" fill="none" xmlns="http://www.w3.org/2000/svg">
<path d="M18.6666 10.2083C18.1883 10.2083 17.7916 9.81159 17.7916 9.33325V5.24992C17.7916 3.98992 17.0099 3.20825 15.7499 3.20825H12.2499C10.9899 3.20825 10.2083 3.98992 10.2083 5.24992V9.33325C10.2083 9.81159 9.81159 10.2083 9.33325 10.2083C8.85492 10.2083 8.45825 9.81159 8.45825 9.33325V5.24992C8.45825 3.02159 10.0216 1.45825 12.2499 1.45825H15.7499C17.9783 1.45825 19.5416 3.02159 19.5416 5.24992V9.33325C19.5416 9.81159 19.1449 10.2083 18.6666 10.2083Z" fill="#9F9B9E"/>
<path d="M9.33331 20.7433C8.85498 20.7433 8.45831 20.3466 8.45831 19.8683C8.45831 19.3783 8.85498 18.9933 9.33331 18.9933H23.0533C23.4033 18.9933 23.6716 18.6899 23.6366 18.3399L22.8433 11.7016C22.5633 9.43825 22.1666 7.58325 18.2 7.58325H9.79998C5.83331 7.58325 5.43665 9.43825 5.16831 11.7016L4.11831 20.4516C3.77998 23.3216 4.66665 25.6666 8.76165 25.6666H19.2383C22.925 25.6666 24.01 23.7649 23.9516 21.2916C23.94 20.9766 23.6833 20.7433 23.3683 20.7433H9.33331Z" fill="#9F9B9E"/>
</svg>
