<svg width="22" height="22" viewBox="0 0 22 22" fill="none" xmlns="http://www.w3.org/2000/svg">
<path d="M13.75 20.8543H8.25C3.2725 20.8543 1.14584 18.7277 1.14584 13.7502V8.25016C1.14584 3.27266 3.2725 1.146 8.25 1.146H13.75C18.7275 1.146 20.8542 3.27266 20.8542 8.25016V13.7502C20.8542 18.7277 18.7275 20.8543 13.75 20.8543ZM8.25 2.521C4.02417 2.521 2.52084 4.02433 2.52084 8.25016V13.7502C2.52084 17.976 4.02417 19.4793 8.25 19.4793H13.75C17.9758 19.4793 19.4792 17.976 19.4792 13.7502V8.25016C19.4792 4.02433 17.9758 2.521 13.75 2.521H8.25Z" fill="#605D5F"/>
<path d="M6.41667 8.8276C6.16917 8.8276 5.92167 8.6901 5.8025 8.45177C5.62833 8.1126 5.76583 7.7001 6.105 7.52593C9.16667 5.9951 12.8242 5.9951 15.8858 7.52593C16.225 7.7001 16.3625 8.1126 16.1975 8.45177C16.0233 8.79093 15.62 8.92843 15.2717 8.76343C12.595 7.4251 9.39583 7.4251 6.71917 8.76343C6.6275 8.80927 6.5175 8.8276 6.41667 8.8276Z" fill="#605D5F"/>
<path d="M11 15.6201C10.6242 15.6201 10.3125 15.3085 10.3125 14.9326V7.26929C10.3125 6.89345 10.6242 6.58179 11 6.58179C11.3758 6.58179 11.6875 6.89345 11.6875 7.26929V14.9418C11.6875 15.3176 11.3758 15.6201 11 15.6201Z" fill="#605D5F"/>
</svg>
