<svg width="22" height="22" viewBox="0 0 22 22" fill="none" xmlns="http://www.w3.org/2000/svg">
<path d="M9.86333 15.0058C9.47833 15.0058 9.12083 14.9141 8.8 14.7308C8.06666 14.3091 7.645 13.4474 7.645 12.3566V9.64328C7.645 8.56161 8.06666 7.69078 8.8 7.26911C9.53333 6.84744 10.4867 6.91161 11.4308 7.46161L13.7867 8.81828C14.7217 9.35911 15.2625 10.1566 15.2625 10.9999C15.2625 11.8433 14.7217 12.6408 13.7867 13.1816L11.4308 14.5383C10.8992 14.8499 10.3583 15.0058 9.86333 15.0058ZM9.8725 8.36911C9.72583 8.36911 9.5975 8.39661 9.49666 8.46078C9.20333 8.63494 9.02916 9.06578 9.02916 9.64328V12.3566C9.02916 12.9341 9.19416 13.3649 9.49666 13.5391C9.79 13.7133 10.2483 13.6399 10.7525 13.3466L13.1083 11.9899C13.6125 11.6966 13.8967 11.3391 13.8967 10.9999C13.8967 10.6608 13.6125 10.2941 13.1083 10.0099L10.7525 8.65328C10.4225 8.46078 10.12 8.36911 9.8725 8.36911Z" fill="#605D5F"/>
<path d="M11 20.8542C5.56417 20.8542 1.14584 16.4359 1.14584 11C1.14584 5.56421 5.56417 1.14587 11 1.14587C16.4358 1.14587 20.8542 5.56421 20.8542 11C20.8542 16.4359 16.4358 20.8542 11 20.8542ZM11 2.52087C6.325 2.52087 2.52084 6.32504 2.52084 11C2.52084 15.675 6.325 19.4792 11 19.4792C15.675 19.4792 19.4792 15.675 19.4792 11C19.4792 6.32504 15.675 2.52087 11 2.52087Z" fill="#605D5F"/>
</svg>
